<svg width="17" height="17" viewBox="0 0 17 17" fill="none" xmlns="http://www.w3.org/2000/svg">
    <path fill-rule="evenodd" clip-rule="evenodd" d="M6.37402 1.07104H3.37402V5.07104V15.071H6.37402V1.07104Z" fill="#9AA7B0" fill-opacity="0.8"/>
    <path fill-rule="evenodd" clip-rule="evenodd" d="M10.374 15.071H13.374V1.07104H10.374V15.071Z" fill="#9AA7B0" fill-opacity="0.8"/>
    <path fill-rule="evenodd" clip-rule="evenodd" d="M7.97402 2.07104H6.37402L7.17402 3.07104H8.77502L7.97402 2.07104Z" fill="#40B6E0"/>
    <path fill-rule="evenodd" clip-rule="evenodd" d="M7.97402 8.07104H6.37402L7.17402 9.07104H8.77502L7.97402 8.07104Z" fill="#40B6E0"/>
    <path fill-rule="evenodd" clip-rule="evenodd" d="M7.97402 10.071H6.37402L7.17402 11.071H8.77502L7.97402 10.071Z" fill="#40B6E0"/>
    <path fill-rule="evenodd" clip-rule="evenodd" d="M7.97402 12.071H6.37402L7.17402 13.071H8.77502L7.97402 12.071Z" fill="#40B6E0"/>
    <path fill-rule="evenodd" clip-rule="evenodd" d="M7.97402 14.071H6.37402L7.17402 15.071H8.77502L7.97402 14.071Z" fill="#40B6E0"/>
    <path fill-rule="evenodd" clip-rule="evenodd" d="M7.97402 4.07104H6.37402L7.17402 5.07104H8.77502L7.97402 4.07104Z" fill="#40B6E0"/>
    <path fill-rule="evenodd" clip-rule="evenodd" d="M7.97402 6.07104H6.37402L7.17402 7.07104H8.77502L7.97402 6.07104Z" fill="#40B6E0"/>
    <path fill-rule="evenodd" clip-rule="evenodd" d="M8.77366 3.07104H10.3737L9.57366 4.07104H7.97266L8.77366 3.07104Z" fill="#40B6E0"/>
    <path fill-rule="evenodd" clip-rule="evenodd" d="M8.77366 1.07104H10.3737L9.57366 2.07104H7.97266L8.77366 1.07104Z" fill="#40B6E0"/>
    <path fill-rule="evenodd" clip-rule="evenodd" d="M8.77366 9.07104H10.3737L9.57366 10.071H7.97266L8.77366 9.07104Z" fill="#40B6E0"/>
    <path fill-rule="evenodd" clip-rule="evenodd" d="M8.77366 11.071H10.3737L9.57366 12.071H7.97266L8.77366 11.071Z" fill="#40B6E0"/>
    <path fill-rule="evenodd" clip-rule="evenodd" d="M8.77366 13.071H10.3737L9.57366 14.071H7.97266L8.77366 13.071Z" fill="#40B6E0"/>
    <path fill-rule="evenodd" clip-rule="evenodd" d="M8.77366 5.07104H10.3737L9.57366 6.07104H7.97266L8.77366 5.07104Z" fill="#40B6E0"/>
    <path fill-rule="evenodd" clip-rule="evenodd" d="M8.77366 7.07104H10.3737L9.57366 8.07104H7.97266L8.77366 7.07104Z" fill="#40B6E0"/>
</svg>
